<svg id="svg8" xmlns="http://www.w3.org/2000/svg" viewBox="0 0 51 47.8"><title>Монтажная область 1</title><g id="layer1"><path id="path3724" d="M21.2,42.56c-1.4-2.9-6.8-13.1-11.9-22.8S0,1.76,0,1.06,11.5,0,25.5,0,51,.46,51,1.06s-4.2,9-9.3,18.7-10.5,19.9-11.9,22.8-3.4,5.3-4.3,5.3S22.7,45.46,21.2,42.56Zm10.6-12.5,3-6.6-4.4-8.8c-2.4-4.8-4.9-8.5-5.5-8s-2.8,4.6-5,9.2L16,24.26l4.4,8.2C25.4,41.36,26.7,41.16,31.8,30.06ZM18,12.66c1.9-3.5,3.4-7,3.4-7.7s-3.7-1.2-8.3-1.2H4.8l3.8,7.6c2.1,4.2,4.2,7.7,4.9,7.7C14,19.16,16.1,16.26,18,12.66Zm24.4-1.2,3.8-7.6H37.9c-4.6,0-8.3.5-8.3,1.2,0,2.1,6.8,14.1,7.9,14.1C38.2,19.16,40.3,15.66,42.4,11.46Z"/></g></svg>